# xmcd CD database file
#
# Track frame offsets:
#	150
#	41986
#	77246
#	89743
#	120826
#	131132
#	152000
#	171120
#	191185
#	218823
#	242649
#	284669
#
# Disc length: 4162 seconds
#
# Revision: 0
# Processed by: cddbd v1.5.2PL0 Copyright (c) Steve Scherf et al.
# Submitted via: CDex 1.51
#
DISCID=b210400c
DTITLE=Levantis - Rose The healing power of flowers
DYEAR=2007
DGENRE=New Age
TTITLE0=Temptation
TTITLE1=Purity
TTITLE2=Gift of Love
TTITLE3=Vibrations
TTITLE4=Heart to Heart
TTITLE5=Tenderness
TTITLE6=Sharing Secrets
TTITLE7=Melting Souls
TTITLE8=Intimate Moments
TTITLE9=Mirage of Paradise
TTITLE10=Awake in Wonder
TTITLE11=Healing Love
EXTD=YEAR: 2007
EXTT0=
EXTT1=
EXTT2=
EXTT3=
EXTT4=
EXTT5=
EXTT6=
EXTT7=
EXTT8=
EXTT9=
EXTT10=
EXTT11=
PLAYORDER=
